<svg version="1.1" xmlns="http://www.w3.org/2000/svg" viewBox="0 0 88 34">
    <g>
        <path fill="#050000" d="M27.151,17.975h-4.667v-7.75c0-0.203-0.081-0.284-0.284-0.284h-2.516c-0.203,0-0.325,0.123-0.325,0.284   v19.721c0,0.202,0.081,0.323,0.284,0.323h2.556c0.163,0,0.284-0.121,0.284-0.323v-9.414h4.667v9.414   c0,0.202,0.122,0.323,0.325,0.323h2.516c0.203,0,0.285-0.162,0.285-0.323v-19.72c0-0.162-0.122-0.284-0.285-0.284h-2.516   c-0.203,0-0.325,0.163-0.325,0.284L27.151,17.975L27.151,17.975z" />
        <path fill="#050000" d="M45.289,10.226c0-0.203-0.081-0.284-0.244-0.284h-8.114c-0.203,0-0.325,0.123-0.325,0.284v1.461   c0,4.909-0.283,11.239-2.88,16.028h-0.893c-0.243,0-0.324,0.121-0.324,0.322c0,0,0,4.562,0,5.615c0,0.202,0.162,0.283,0.284,0.283   h1.948c0.447,0,0.608-0.323,0.608-0.607V30.27h8.684v3.383c0,0.162,0.121,0.283,0.284,0.283h2.07c0.243,0,0.485-0.202,0.485-0.607   v-5.291c0-0.201-0.121-0.322-0.323-0.322h-0.488c-0.608,0-0.771-0.243-0.771-0.731V10.226z M42.165,27.713H36.28   c2.07-3.529,2.881-7.506,3.166-12.375c0.081-1.056,0.121-2.15,0.121-2.84h2.597L42.165,27.713L42.165,27.713z" />
        <path fill="#050000" d="M55.093,9.456c-4.383,0-6.331,5.519-6.331,11.523c0,6.127,2.76,9.777,6.817,9.777   c1.987,0,3.731-0.771,4.627-1.34c0.162-0.08,0.202-0.201,0.162-0.363l-0.325-1.381c-0.041-0.162-0.123-0.243-0.325-0.243   c-0.161,0-1.338,0.448-3.003,0.448c-3.124,0-4.585-2.721-4.585-6.291c0-0.486,0-1.015,0-1.015s1.584,0.243,2.517,0.243h5.924   v-1.704C60.57,12.823,58.338,9.456,55.093,9.456L55.093,9.456z M54.646,18.26c-0.933,0-2.395,0.16-2.395,0.16s0-0.607,0.082-1.256   c0.363-3.449,1.217-5.193,2.637-5.193c1.299,0,2.11,1.785,2.313,4.91c0.039,0.647,0.039,1.379,0.039,1.379H54.646z" />
        <path fill="#050000" d="M66.98,19.153c0.203-0.123,0.406-0.406,0.608-0.854l3.652-7.587c0.243-0.527,0.487-0.771,1.177-0.771h2.395   c0.162,0,0.203,0.163,0.121,0.284l-4.867,8.886l5.68,10.875c0.081,0.121,0.041,0.283-0.121,0.283h-2.598   c-0.527,0-0.895-0.121-1.137-0.608l-4.627-9.494c-0.08-0.162-0.162-0.285-0.283-0.365v10.186c0,0.162-0.08,0.283-0.244,0.283   h-2.635c-0.164,0-0.244-0.162-0.244-0.283V10.226c0-0.162,0.121-0.284,0.244-0.284h2.635c0.164,0,0.244,0.123,0.244,0.284V19.153z" />
        <path fill="#050000" d="M87.585,27.592c-0.039-0.121-0.081-0.163-0.202-0.163c-0.201,0-1.298,0.448-2.88,0.448   c-3.085,0-4.586-2.965-4.586-7.67c0-4.141,1.257-8.236,3.368-8.236c0.566,0,1.257,0.16,2.354,1.176   c0.121,0.123,0.202,0.162,0.325,0.162c0.121,0,0.241-0.081,0.364-0.283l1.095-1.786c0.081-0.121,0.123-0.243,0.123-0.365   c0-0.163-0.163-0.284-0.407-0.406c-1.662-0.852-2.799-1.013-3.771-1.013c-3.815,0-6.778,4.542-6.778,11.645   c0,6.127,2.842,9.657,6.898,9.657c1.705,0,3.531-0.812,4.261-1.34c0.162-0.121,0.204-0.283,0.162-0.446L87.585,27.592z" />
    </g>
    <g>
        <path fill="#FF0000" d="M1.096,10.145c0,4.018,1.867,6.98,5.194,8.439L0.082,29.786c-0.203,0.363,0,0.646,0.325,0.646h2.881   c0.243,0,0.405-0.081,0.487-0.283l5.64-10.996h2.029v10.996c0,0.121,0.122,0.283,0.284,0.283h2.516c0.244,0,0.325-0.12,0.325-0.322   V0.406C14.569,0.122,14.406,0,14.123,0H9.496C4.951,0.001,1.096,3.45,1.096,10.145L1.096,10.145z M11.443,16.556H9.739   c-2.678,0-5.275-1.949-5.275-6.817c0-5.072,2.434-7.141,4.91-7.141h2.069V16.556z" />
    </g>
</svg>
