<svg xmlns="http://www.w3.org/2000/svg" fill="#E74C3C" viewBox="0 0 26 26"><path d="M11.5-.03c-1.958 0-3.53 1.626-3.53 3.592V4H4c-.55 0-1 .45-1 1v1H2v2h2v15c0 1.645 1.355 3 3 3h12c1.645 0 3-1.355 3-3V8h2V6h-1V5c0-.55-.45-1-1-1h-3.97v-.438c0-1.966-1.572-3.593-3.53-3.593h-3zm0 2.06h3c.804 0 1.47.657 1.47 1.533V4h-5.94v-.438c0-.875.666-1.53 1.47-1.53zM6 8h5.125c.124.013.247.03.375.03h3c.128 0 .25-.017.375-.03H20v15c0 .563-.437 1-1 1H7c-.563 0-1-.437-1-1V8zm2 2v12h2V10H8zm4 0v12h2V10h-2zm4 0v12h2V10h-2z" style="text-indent:0;text-align:start;line-height:normal;text-transform:none;block-progression:tb;-inkscape-font-specification:Bitstream Vera Sans" color="#000" overflow="visible" font-family="Bitstream Vera Sans"/></svg>