<svg xmlns="http://www.w3.org/2000/svg" viewBox="0 0 88 34"><g fill="#050000"><path d="M27.151 17.975h-4.667v-7.75c0-.203-.081-.284-.284-.284h-2.516c-.203 0-.325.123-.325.284v19.721c0 .202.081.323.284.323h2.556c.163 0 .284-.121.284-.323v-9.414h4.667v9.414c0 .202.122.323.325.323h2.516c.203 0 .285-.162.285-.323v-19.72a.278.278 0 0 0-.285-.284h-2.516c-.203 0-.325.163-.325.284l.001 7.749zM45.289 10.226c0-.203-.081-.284-.244-.284h-8.114c-.203 0-.325.123-.325.284v1.461c0 4.909-.283 11.239-2.88 16.028h-.893c-.243 0-.324.121-.324.322v5.615c0 .202.162.283.284.283h1.948c.447 0 .608-.323.608-.607V30.27h8.684v3.383c0 .162.121.283.284.283h2.07c.243 0 .485-.202.485-.607v-5.291c0-.201-.121-.322-.323-.322h-.488c-.608 0-.771-.243-.771-.731V10.226zm-3.124 17.487H36.28c2.07-3.529 2.881-7.506 3.166-12.375.081-1.056.121-2.15.121-2.84h2.597l.001 15.215zM55.093 9.456c-4.383 0-6.331 5.519-6.331 11.523 0 6.127 2.76 9.777 6.817 9.777 1.987 0 3.731-.771 4.627-1.34.162-.08.202-.201.162-.363l-.325-1.381c-.041-.162-.123-.243-.325-.243-.161 0-1.338.448-3.003.448-3.124 0-4.585-2.721-4.585-6.291v-1.015s1.584.243 2.517.243h5.924V19.11c-.001-6.287-2.233-9.654-5.478-9.654zm-.447 8.804c-.933 0-2.395.16-2.395.16s0-.607.082-1.256c.363-3.449 1.217-5.193 2.637-5.193 1.299 0 2.11 1.785 2.313 4.91.039.647.039 1.379.039 1.379h-2.676zM66.98 19.153c.203-.123.406-.406.608-.854l3.652-7.587c.243-.527.487-.771 1.177-.771h2.395c.162 0 .203.163.121.284l-4.867 8.886 5.68 10.875c.081.121.041.283-.121.283h-2.598c-.527 0-.895-.121-1.137-.608l-4.627-9.494c-.08-.162-.162-.285-.283-.365v10.186c0 .162-.08.283-.244.283h-2.635c-.164 0-.244-.162-.244-.283V10.226c0-.162.121-.284.244-.284h2.635c.164 0 .244.123.244.284v8.927zM87.585 27.592c-.039-.121-.081-.163-.202-.163-.201 0-1.298.448-2.88.448-3.085 0-4.586-2.965-4.586-7.67 0-4.141 1.257-8.236 3.368-8.236.566 0 1.257.16 2.354 1.176.121.123.202.162.325.162.121 0 .241-.081.364-.283l1.095-1.786a.655.655 0 0 0 .123-.365c0-.163-.163-.284-.407-.406-1.662-.852-2.799-1.013-3.771-1.013-3.815 0-6.778 4.542-6.778 11.645 0 6.127 2.842 9.657 6.898 9.657 1.705 0 3.531-.812 4.261-1.34.162-.121.204-.283.162-.446l-.326-1.38z"/></g><path fill="#F00" d="M1.096 10.145c0 4.018 1.867 6.98 5.194 8.439L.082 29.786c-.203.363 0 .646.325.646h2.881c.243 0 .405-.081.487-.283l5.64-10.996h2.029v10.996c0 .121.122.283.284.283h2.516c.244 0 .325-.12.325-.322V.406c0-.284-.163-.406-.446-.406H9.496c-4.545.001-8.4 3.45-8.4 10.145zm10.347 6.411H9.739c-2.678 0-5.275-1.949-5.275-6.817 0-5.072 2.434-7.141 4.91-7.141h2.069v13.958z"/></svg>